; NON-PLATED HOLES START AT T1
; THROUGH (PLATED) HOLES START AT T100
M48
INCH
T100C0.035000
T101C0.025000
T102C0.038000
T103C0.039370
T104C0.098425
T105C0.036111
%
T100
X001009Y011152
X001009Y007152
X002009Y011652
X003509Y009152
X002009Y007652
X003509Y013152
T101
X001509Y014652
X002297Y014652
X003871Y014652
X003083Y014652
T102
X022009Y014652
X020009Y014652
X006009Y014652
X019009Y014652
X006009Y013652
X006009Y015657
X021009Y014652
T103
X019009Y007652
X021009Y007652
X017009Y007652
X018009Y007652
X023009Y007652
X020009Y007652
X022009Y007652
T104
X023009Y002652
X017009Y002652
T105
X009509Y010652
X011509Y010652
X005509Y001653
X008509Y001653
X007509Y010652
X006509Y001653
X010509Y010652
X012509Y001653
X006509Y010652
X007509Y001653
X005509Y010652
X010509Y001653
X009509Y001653
X012509Y010652
X008509Y010652
X011509Y001653
T00
M30
