G04 MADE WITH FRITZING*
G04 WWW.FRITZING.ORG*
G04 DOUBLE SIDED*
G04 HOLES PLATED*
G04 CONTOUR ON CENTER OF CONTOUR VECTOR*
%ASAXBY*%
%FSLAX23Y23*%
%MOIN*%
%OFA0B0*%
%SFA1.0B1.0*%
%ADD10C,0.077778*%
%ADD11C,0.138425*%
%ADD12C,0.070000*%
%ADD13C,0.078000*%
%ADD14C,0.065000*%
%ADD15C,0.075000*%
%ADD16R,0.078000X0.078000*%
%ADD17C,0.024000*%
%LNCOPPER0*%
G90*
G70*
G54D10*
X1251Y1065D03*
X1151Y1065D03*
X1051Y1065D03*
X951Y1065D03*
X851Y1065D03*
X751Y1065D03*
X651Y1065D03*
X551Y1065D03*
X551Y165D03*
X651Y165D03*
X751Y165D03*
X851Y165D03*
X951Y165D03*
X1051Y165D03*
X1151Y165D03*
X1251Y165D03*
G54D11*
X2301Y265D03*
G54D12*
X2301Y765D03*
X2201Y765D03*
X2101Y765D03*
X2001Y765D03*
X1901Y765D03*
X1801Y765D03*
X1701Y765D03*
G54D11*
X1701Y265D03*
G54D13*
X601Y1566D03*
X601Y1465D03*
X601Y1365D03*
X2201Y1465D03*
X2101Y1465D03*
X2001Y1465D03*
X1901Y1465D03*
G54D14*
X151Y1465D03*
X230Y1465D03*
X308Y1465D03*
X387Y1465D03*
G54D15*
X351Y915D03*
X351Y1315D03*
X201Y765D03*
X201Y1165D03*
X101Y1115D03*
X101Y715D03*
G54D16*
X600Y1365D03*
X2201Y1465D03*
G54D17*
X2101Y796D02*
X2101Y965D01*
D02*
X2101Y965D02*
X2101Y1435D01*
D02*
X1150Y1666D02*
X1700Y1666D01*
D02*
X631Y1571D02*
X1150Y1666D01*
D02*
X1700Y1666D02*
X2151Y1666D01*
D02*
X2151Y1666D02*
X2194Y1495D01*
D02*
X2302Y766D02*
X2320Y789D01*
D02*
X2250Y965D02*
X2302Y766D01*
D02*
X2204Y1435D02*
X2250Y965D01*
D02*
X2052Y1616D02*
X1150Y1616D01*
D02*
X1150Y1616D02*
X801Y1465D01*
D02*
X2092Y1494D02*
X2052Y1616D01*
D02*
X801Y1465D02*
X628Y1379D01*
D02*
X1300Y64D02*
X2078Y745D01*
D02*
X551Y64D02*
X1300Y64D01*
D02*
X651Y65D02*
X551Y64D01*
D02*
X651Y136D02*
X651Y65D01*
D02*
X1452Y464D02*
X1778Y745D01*
D02*
X1074Y183D02*
X1452Y464D01*
D02*
X1250Y465D02*
X1251Y464D01*
D02*
X972Y186D02*
X1250Y465D01*
D02*
X1251Y464D02*
X1675Y748D01*
D02*
X1819Y790D02*
X1950Y965D01*
D02*
X1950Y965D02*
X1998Y1435D01*
D02*
X1717Y792D02*
X1850Y1017D01*
D02*
X1850Y1017D02*
X1898Y1435D01*
D02*
X450Y1265D02*
X451Y1564D01*
D02*
X451Y1564D02*
X571Y1565D01*
D02*
X538Y1091D02*
X450Y1265D01*
D02*
X501Y1465D02*
X571Y1465D01*
D02*
X501Y1316D02*
X501Y1465D01*
D02*
X550Y1215D02*
X501Y1316D01*
D02*
X751Y1065D02*
X550Y1215D01*
D02*
X751Y1064D02*
X751Y1065D01*
D02*
X763Y1039D02*
X751Y1064D01*
D02*
X358Y1343D02*
X382Y1442D01*
D02*
X230Y1165D02*
X202Y1165D01*
D02*
X202Y1165D02*
X300Y1443D01*
D02*
X651Y65D02*
X651Y136D01*
D02*
X51Y65D02*
X651Y65D01*
D02*
X50Y1566D02*
X51Y65D01*
D02*
X202Y1566D02*
X50Y1566D01*
D02*
X223Y1488D02*
X202Y1566D01*
D02*
X102Y1117D02*
X148Y1442D01*
D02*
X114Y1141D02*
X102Y1117D01*
D02*
X551Y616D02*
X402Y616D01*
D02*
X932Y1044D02*
X551Y616D01*
D02*
X402Y616D02*
X102Y616D01*
D02*
X102Y616D02*
X101Y687D01*
D02*
X227Y753D02*
X202Y765D01*
D02*
X202Y765D02*
X402Y765D01*
D02*
X451Y765D02*
X502Y765D01*
D02*
X402Y765D02*
X451Y765D01*
D02*
X502Y765D02*
X551Y765D01*
D02*
X551Y765D02*
X830Y1045D01*
D02*
X340Y942D02*
X350Y916D01*
D02*
X502Y916D02*
X630Y1045D01*
D02*
X350Y916D02*
X502Y916D01*
G04 End of Copper0*
M02*