G04 MADE WITH FRITZING*
G04 WWW.FRITZING.ORG*
G04 DOUBLE SIDED*
G04 HOLES PLATED*
G04 CONTOUR ON CENTER OF CONTOUR VECTOR*
%ASAXBY*%
%FSLAX23Y23*%
%MOIN*%
%OFA0B0*%
%SFA1.0B1.0*%
%ADD10C,0.087778*%
%ADD11C,0.148425*%
%ADD12C,0.080000*%
%ADD13C,0.088000*%
%ADD14C,0.075000*%
%ADD15C,0.085000*%
%ADD16R,0.088000X0.088000*%
%LNMASK0*%
G90*
G70*
G54D10*
X1251Y1065D03*
X1151Y1065D03*
X1051Y1065D03*
X951Y1065D03*
X851Y1065D03*
X751Y1065D03*
X651Y1065D03*
X551Y1065D03*
X551Y165D03*
X651Y165D03*
X751Y165D03*
X851Y165D03*
X951Y165D03*
X1051Y165D03*
X1151Y165D03*
X1251Y165D03*
G54D11*
X2301Y265D03*
G54D12*
X2301Y765D03*
X2201Y765D03*
X2101Y765D03*
X2001Y765D03*
X1901Y765D03*
X1801Y765D03*
X1701Y765D03*
G54D11*
X1701Y265D03*
G54D13*
X601Y1566D03*
X601Y1465D03*
X601Y1365D03*
X2201Y1465D03*
X2101Y1465D03*
X2001Y1465D03*
X1901Y1465D03*
G54D14*
X151Y1465D03*
X230Y1465D03*
X308Y1465D03*
X387Y1465D03*
G54D15*
X351Y915D03*
X351Y1315D03*
X201Y765D03*
X201Y1165D03*
X101Y1115D03*
X101Y715D03*
G54D16*
X600Y1365D03*
X2201Y1465D03*
G04 End of Mask0*
M02*