; NON-PLATED HOLES START AT T1
; THROUGH (PLATED) HOLES START AT T100
M48
INCH
T100C0.036111
T101C0.098425
T102C0.025000
T103C0.039370
T104C0.038000
T105C0.035000
%
T100
X005553Y001607
X008553Y010607
X006553Y010607
X010553Y001607
X011553Y001607
X010553Y010607
X007553Y010607
X006553Y001607
X012553Y001607
X011553Y010607
X007553Y001607
X005553Y010607
X009553Y001607
X012553Y010607
X008553Y001607
X009553Y010607
T101
X017053Y003107
X023053Y003107
T102
X003915Y014607
X003127Y014607
X002341Y014607
X001553Y014607
T103
X022053Y008106
X019053Y008106
X023053Y008106
X017053Y008106
X018053Y008106
X021053Y008106
X020053Y008106
T104
X007053Y014607
X019553Y014107
X018554Y014107
X021553Y014107
X007053Y013607
X020553Y014107
X007053Y015611
T105
X001053Y011107
X002053Y011606
X002053Y007607
X001053Y007107
X003553Y013107
X003553Y009107
T00
M30
