G04 MADE WITH FRITZING*
G04 WWW.FRITZING.ORG*
G04 DOUBLE SIDED*
G04 HOLES PLATED*
G04 CONTOUR ON CENTER OF CONTOUR VECTOR*
%ASAXBY*%
%FSLAX23Y23*%
%MOIN*%
%OFA0B0*%
%SFA1.0B1.0*%
%ADD10C,0.077778*%
%ADD11C,0.138425*%
%ADD12C,0.070000*%
%ADD13C,0.078000*%
%ADD14C,0.065000*%
%ADD15C,0.075000*%
%ADD16R,0.078000X0.078000*%
%ADD17C,0.024000*%
%LNCOPPER0*%
G90*
G70*
G54D10*
X1255Y1061D03*
X1155Y1061D03*
X1055Y1061D03*
X955Y1061D03*
X855Y1061D03*
X755Y1061D03*
X655Y1061D03*
X555Y1061D03*
X555Y161D03*
X655Y161D03*
X755Y161D03*
X855Y161D03*
X955Y161D03*
X1055Y161D03*
X1155Y161D03*
X1255Y161D03*
G54D11*
X2305Y311D03*
G54D12*
X2305Y811D03*
X2205Y811D03*
X2105Y811D03*
X2005Y811D03*
X1905Y811D03*
X1805Y811D03*
X1705Y811D03*
G54D11*
X1705Y311D03*
G54D13*
X705Y1561D03*
X705Y1461D03*
X705Y1361D03*
X2155Y1411D03*
X2055Y1411D03*
X1955Y1411D03*
X1855Y1411D03*
G54D14*
X155Y1461D03*
X234Y1461D03*
X313Y1461D03*
X392Y1461D03*
G54D15*
X355Y911D03*
X355Y1311D03*
X205Y761D03*
X205Y1161D03*
X105Y1111D03*
X105Y711D03*
G54D16*
X705Y1361D03*
X2155Y1411D03*
G54D17*
X2086Y787D02*
X2104Y809D01*
D02*
X2104Y809D02*
X2058Y1381D01*
D02*
X1505Y1561D02*
X1705Y1561D01*
D02*
X735Y1561D02*
X1505Y1561D01*
D02*
X1705Y1561D02*
X2005Y1561D01*
D02*
X2005Y1561D02*
X2134Y1432D01*
D02*
X2305Y809D02*
X2298Y781D01*
D02*
X2155Y960D02*
X2305Y809D01*
D02*
X2155Y1381D02*
X2155Y960D01*
D02*
X1955Y1510D02*
X1756Y1510D01*
D02*
X1756Y1510D02*
X1006Y1510D01*
D02*
X2034Y1432D02*
X1955Y1510D01*
D02*
X1006Y1510D02*
X956Y1512D01*
D02*
X956Y1512D02*
X731Y1376D01*
D02*
X1304Y60D02*
X2083Y790D01*
D02*
X555Y60D02*
X1304Y60D01*
D02*
X655Y59D02*
X555Y60D01*
D02*
X655Y132D02*
X655Y59D01*
D02*
X1405Y511D02*
X1781Y792D01*
D02*
X1076Y181D02*
X1405Y511D01*
D02*
X974Y183D02*
X1204Y460D01*
D02*
X1204Y460D02*
X1680Y793D01*
D02*
X1827Y832D02*
X1956Y960D01*
D02*
X1956Y960D02*
X1955Y1381D01*
D02*
X1721Y837D02*
X1856Y1060D01*
D02*
X1856Y1060D02*
X1855Y1381D01*
D02*
X505Y1261D02*
X505Y1460D01*
D02*
X505Y1460D02*
X678Y1548D01*
D02*
X548Y1089D02*
X505Y1261D01*
D02*
X606Y1410D02*
X679Y1447D01*
D02*
X606Y1261D02*
X606Y1410D01*
D02*
X606Y1211D02*
X606Y1261D01*
D02*
X735Y1081D02*
X606Y1211D01*
D02*
X362Y1339D02*
X386Y1438D01*
D02*
X234Y1161D02*
X206Y1161D01*
D02*
X206Y1161D02*
X305Y1438D01*
D02*
X655Y59D02*
X655Y132D01*
D02*
X56Y60D02*
X655Y59D01*
D02*
X55Y1561D02*
X56Y60D01*
D02*
X206Y1561D02*
X55Y1561D01*
D02*
X228Y1483D02*
X206Y1561D01*
D02*
X106Y1112D02*
X152Y1437D01*
D02*
X118Y1136D02*
X106Y1112D01*
D02*
X555Y612D02*
X406Y612D01*
D02*
X406Y612D02*
X406Y612D01*
D02*
X936Y1039D02*
X555Y612D01*
D02*
X406Y612D02*
X206Y611D01*
D02*
X206Y611D02*
X126Y691D01*
D02*
X231Y748D02*
X206Y760D01*
D02*
X206Y760D02*
X406Y760D01*
D02*
X455Y760D02*
X506Y760D01*
D02*
X406Y760D02*
X455Y760D01*
D02*
X506Y760D02*
X555Y760D01*
D02*
X555Y760D02*
X835Y1040D01*
D02*
X345Y937D02*
X355Y912D01*
D02*
X506Y912D02*
X635Y1040D01*
D02*
X355Y912D02*
X506Y912D01*
G04 End of Copper0*
M02*