G04 MADE WITH FRITZING*
G04 WWW.FRITZING.ORG*
G04 DOUBLE SIDED*
G04 HOLES PLATED*
G04 CONTOUR ON CENTER OF CONTOUR VECTOR*
%ASAXBY*%
%FSLAX23Y23*%
%MOIN*%
%OFA0B0*%
%SFA1.0B1.0*%
%ADD10C,0.077778*%
%ADD11C,0.138425*%
%ADD12C,0.070000*%
%ADD13C,0.078000*%
%ADD14C,0.065000*%
%ADD15C,0.075000*%
%ADD16R,0.078000X0.078000*%
%LNCOPPER1*%
G90*
G70*
G54D10*
X1255Y1061D03*
X1155Y1061D03*
X1055Y1061D03*
X955Y1061D03*
X855Y1061D03*
X755Y1061D03*
X655Y1061D03*
X555Y1061D03*
X555Y161D03*
X655Y161D03*
X755Y161D03*
X855Y161D03*
X955Y161D03*
X1055Y161D03*
X1155Y161D03*
X1255Y161D03*
G54D11*
X2305Y311D03*
G54D12*
X2305Y811D03*
X2205Y811D03*
X2105Y811D03*
X2005Y811D03*
X1905Y811D03*
X1805Y811D03*
X1705Y811D03*
G54D11*
X1705Y311D03*
G54D13*
X2155Y1411D03*
X2055Y1411D03*
X1955Y1411D03*
X1855Y1411D03*
G54D14*
X155Y1461D03*
X234Y1461D03*
X313Y1461D03*
X392Y1461D03*
G54D15*
X355Y911D03*
X355Y1311D03*
X205Y761D03*
X205Y1161D03*
X105Y1111D03*
X105Y711D03*
G54D13*
X705Y1561D03*
X705Y1461D03*
X705Y1361D03*
G54D16*
X2155Y1411D03*
X705Y1361D03*
G04 End of Copper1*
M02*